<?xml version="1.0" encoding="UTF-8" standalone="no"?>
<!DOCTYPE svg PUBLIC "-//W3C//DTD SVG 1.1//EN" "http://www.w3.org/Graphics/SVG/1.1/DTD/svg11.dtd">
<svg width="100%" height="100%" viewBox="0 0 2800 632" version="1.1" xmlns="http://www.w3.org/2000/svg" xmlns:xlink="http://www.w3.org/1999/xlink" xml:space="preserve" xmlns:serif="http://www.serif.com/" style="fill-rule:evenodd;clip-rule:evenodd;stroke-linejoin:round;stroke-miterlimit:2;">
    <g transform="matrix(1,0,0,1,-200,-255)">
        <g transform="matrix(0.876407,0,0,0.876407,195.479,-465.407)">
            <g transform="matrix(0.345333,0,0,0.345333,-25.5552,725.307)">
                <path d="M1505.95,2305.8C1503.39,2308.35 1500.84,2310.88 1498.29,2313.37C1448.43,2362.07 1375.38,2379.61 1308.66,2359.52C1183.77,2321.92 1065.66,2255.93 964.412,2161.66C956.812,2154.33 949.483,2147.28 942.154,2139.95C906.594,2104.39 874.835,2066.66 846.876,2027.02C834.39,2009.92 822.989,1992.55 812.403,1974.91C808.06,1967.58 803.716,1960.25 799.373,1952.65C787.973,1932.83 777.386,1912.47 767.885,1892.12L756.485,1866.87C755.67,1865.24 755.127,1863.61 754.585,1861.99C751.327,1854.66 748.341,1847.06 745.356,1839.73C735.584,1815.3 727.169,1790.32 720.111,1765.08C716.854,1755.04 714.139,1744.72 711.696,1734.4C710.61,1730.33 709.525,1726.26 708.71,1722.19C706.81,1714.32 704.91,1706.18 703.526,1698.03C702.196,1692.33 701.11,1686.63 700.024,1680.66C697.853,1670.07 696.224,1659.22 694.595,1648.63C693.509,1641.57 692.695,1634.51 691.881,1627.46C691.066,1622.3 690.523,1617.41 690.252,1612.53C689.438,1606.01 688.623,1599.23 688.352,1592.71C687.538,1585.11 686.995,1577.51 686.723,1569.91C686.18,1566.11 685.909,1562.01 686.18,1558.24C685.909,1556.34 685.909,1554.71 685.909,1552.78C685.637,1551.97 685.637,1551.15 685.637,1550.37C685.366,1540.32 685.095,1530.28 685.095,1520.24L685.095,1519.42C685.095,1506.91 685.366,1494.72 685.909,1482.23C686.452,1470.02 687.266,1457.53 688.352,1445.02C689.438,1432.56 690.523,1420.34 692.152,1407.86C693.509,1397.27 695.138,1386.68 696.74,1376.1C699.21,1361.98 701.653,1348.14 704.91,1334.02C709.525,1311.49 715.225,1289.51 721.74,1267.79C722.554,1265.35 723.368,1262.9 723.884,1260.46C727.712,1248.79 731.512,1237.12 735.584,1225.72C741.012,1210.79 746.713,1195.86 752.685,1181.2C755.67,1173.87 758.928,1166.54 762.185,1159.48C765.443,1152.15 768.7,1144.83 772.229,1137.77C775.757,1130.44 779.286,1123.38 783.087,1116.32C794.487,1094.07 806.974,1072.35 820.546,1050.91C824.889,1043.9 829.205,1037.28 833.575,1030.6C845.139,1012.74 857.978,995.72 871.252,979.081C877.875,970.748 884.444,962.279 891.393,954.271L907.68,935.541C913.38,929.298 918.809,923.055 924.51,917.083C930.482,910.839 936.182,904.868 942.154,898.896C956.54,884.509 971.198,870.666 986.399,857.636C994,851.121 1001.6,844.607 1009.2,838.364C1016.8,832.12 1024.67,826.149 1032.55,820.177L1032.82,820.177C1080.32,784.074 1131.35,752.587 1185.64,726.799C1299.92,672.239 1427.77,641.837 1562.68,641.837C1589.87,641.837 1616.69,643.047 1643.15,645.468C1668.18,647.836 1690.76,661.479 1704.49,682.529C1787.67,811.331 1837.87,963.091 1843.6,1126.37C1843.9,1136.68 1844.17,1147.27 1844.17,1157.58C1844.17,1174.96 1843.6,1192.06 1842.51,1208.89C1826.16,1493.48 1673.89,1741.78 1449.84,1889.85C1430.08,1902.72 1405.03,1904.26 1383.84,1893.92C1383.8,1894.02 1383.8,1894.02 1383.8,1894.02L1374.84,1889.4C1361.27,1882.34 1347.96,1874.74 1335.21,1866.6C1333.55,1865.51 1332.22,1864.16 1330.59,1863.07C1319.98,1856.01 1309.69,1848.41 1299.92,1840.54C1294.22,1835.93 1288.79,1830.77 1283.36,1825.61C1277.93,1820.73 1272.23,1815.84 1267.07,1810.68C1263.55,1806.88 1259.99,1803.08 1256.49,1799.28C1251.06,1793.04 1245.63,1787.07 1240.47,1780.82C1236.67,1775.94 1232.85,1771.05 1229.07,1765.89C1224.73,1759.92 1220.39,1753.68 1216.31,1747.43C1213.06,1742.55 1209.53,1737.39 1206.54,1732.51C1200.3,1721.92 1194.33,1711.33 1189.17,1700.2C1186.73,1695.32 1184.56,1690.16 1182.38,1685C1179.13,1677.4 1176.14,1669.8 1173.15,1662.2C1171.25,1656.77 1169.35,1651.62 1167.73,1646.46C1164.74,1636.96 1162.03,1627.18 1159.58,1617.68C1158.77,1614.15 1157.68,1610.63 1157.11,1607.1C1157.07,1606.82 1157.02,1606.54 1156.97,1606.26C1156.51,1603.7 1157.87,1601.16 1160.25,1600.12C1330.91,1525.3 1449.76,1355.21 1449.76,1157.58C1449.76,1145.1 1449.21,1132.61 1448.13,1120.4C1447.72,1114.53 1447.21,1108.72 1446.58,1102.91C1443.68,1075.99 1416.4,1058.34 1391.1,1067.92L1390.85,1068.01C1386.24,1069.63 1381.9,1071.26 1377.55,1073.16C1360.99,1079.95 1344.71,1087.82 1328.69,1096.78C1322.99,1099.77 1317.29,1103.02 1311.86,1106.55C1311.59,1106.55 1311.32,1106.82 1311.32,1106.82C1295.03,1116.87 1279.26,1127.73 1264.36,1139.4C1264.09,1139.4 1264.09,1139.67 1263.82,1139.94C1254.05,1147.81 1244.27,1155.95 1235.04,1164.37L1234.23,1165.18C1229.62,1169.8 1224.97,1174.14 1220.39,1178.76C1206.27,1192.6 1193.51,1207.26 1181.84,1222.46C1177.77,1227.62 1173.97,1232.77 1170.17,1238.2C1166.1,1243.36 1162.57,1248.79 1159.04,1254.22C1155.24,1259.65 1151.98,1265.08 1148.72,1270.78C1146.01,1274.85 1143.54,1279.19 1141.39,1283.54C1137.05,1290.86 1133.25,1298.19 1129.45,1305.79C1125.38,1313.94 1121.58,1322.35 1118.05,1330.77C1113.98,1340.27 1110.18,1350.04 1106.65,1360.08C1105.29,1363.61 1104.21,1367.41 1103.12,1371.21C1100.68,1378.54 1098.51,1385.87 1096.61,1393.2C1094.16,1401.61 1091.99,1410.03 1090.34,1418.44C1089.01,1424.14 1088.19,1429.57 1087.11,1435C1085.75,1442.33 1084.66,1449.36 1083.85,1456.72C1082.46,1467.01 1081.4,1477.32 1080.86,1487.66C1080.59,1487.93 1080.59,1488.48 1080.86,1488.75C1080.05,1499.06 1079.78,1509.11 1079.78,1519.42C1079.78,1528.38 1080.05,1537.34 1080.59,1546.29C1080.86,1553.08 1081.4,1559.57 1081.95,1566.35C1082.46,1572.08 1083.31,1577.51 1083.85,1582.94C1084.66,1587.83 1085.21,1592.71 1086.02,1597.33C1086.02,1598.14 1086.29,1598.95 1086.56,1599.77C1087.65,1606.83 1088.73,1613.61 1090.34,1620.4C1090.63,1621.76 1090.91,1622.84 1091.18,1624.2C1091.99,1627.73 1092.81,1631.53 1093.89,1635.06C1095.52,1642.39 1097.42,1649.72 1099.59,1656.77C1101.76,1664.37 1104.21,1671.7 1106.92,1679.03C1112.89,1696.67 1120.22,1714.32 1128.64,1731.15C1131.35,1737.12 1134.34,1742.82 1137.32,1748.52C1150.62,1773.22 1166.1,1796.84 1184.26,1819.1C1187.81,1823.98 1191.88,1828.87 1195.95,1833.48C1197.04,1835.11 1198.4,1836.47 1200.03,1838.1C1203.56,1842.44 1207.36,1846.51 1211.4,1850.86C1214.68,1854.38 1217.94,1857.64 1221.2,1860.9C1225.81,1865.51 1230.7,1870.13 1235.59,1874.47C1242.1,1880.72 1248.62,1886.41 1255.4,1891.84C1268.43,1902.7 1282,1912.75 1296.12,1921.98C1297.2,1922.79 1298.29,1923.6 1299.38,1924.15C1313.76,1933.38 1328.69,1942.06 1343.89,1949.93L1344.16,1949.93C1368.76,1962.53 1394.22,1972.87 1420.22,1980.93C1560.59,2024.42 1612.08,2198.39 1508.82,2302.92C1507.85,2303.87 1506.9,2304.82 1505.95,2305.8Z" style="fill:url(#_Linear1);"/>
                <path d="M617.233,1519.42C617.233,1529.74 617.505,1540.32 617.776,1552.78C621.141,1648.62 638.978,1742.37 670.282,1831.4C681.738,1863.56 672.21,1899.46 646.311,1921.7C620.412,1943.94 583.491,1947.94 553.429,1931.77C277.076,1784.02 89,1492.58 89,1157.58C89,672.782 482.053,280 966.584,280C1205.56,280 1422.31,375.514 1580.52,530.66C1587.79,537.883 1589.99,548.777 1586.08,558.251C1582.17,567.725 1572.94,573.906 1562.69,573.906C1562.69,573.976 1562.68,573.976 1562.68,573.976C1420.44,573.976 1283.63,604.92 1156.6,665.453C1138.14,674.139 1119.95,683.64 1102.58,693.683C1059.42,681.197 1013.82,674.411 966.584,674.411C700.024,674.411 483.682,890.753 483.682,1157.58C483.682,1287.34 534.985,1405.14 618.319,1492.01C618.048,1500.94 617.233,1510.44 617.233,1519.42Z" style="fill:rgb(35,97,146);"/>
            </g>
            <g transform="matrix(10.1737,0,0,10.1737,-14035.3,-7954.54)">
                <path d="M1449.45,885.718C1449.45,882.251 1450.18,879.16 1451.63,876.443C1453.08,873.726 1455.13,871.61 1457.8,870.093C1460.47,868.576 1463.53,867.818 1467,867.818C1471.4,867.818 1475.1,868.993 1478.1,871.343C1481.1,873.693 1483.03,876.885 1483.9,880.918L1473.35,880.918C1472.72,879.585 1471.84,878.568 1470.73,877.868C1469.61,877.168 1468.32,876.818 1466.85,876.818C1464.58,876.818 1462.78,877.626 1461.43,879.243C1460.08,880.86 1459.4,883.018 1459.4,885.718C1459.4,888.451 1460.08,890.626 1461.43,892.243C1462.78,893.86 1464.58,894.668 1466.85,894.668C1468.32,894.668 1469.61,894.318 1470.73,893.618C1471.84,892.918 1472.72,891.901 1473.35,890.568L1483.9,890.568C1483.03,894.601 1481.1,897.793 1478.1,900.143C1475.1,902.493 1471.4,903.668 1467,903.668C1463.53,903.668 1460.47,902.91 1457.8,901.393C1455.13,899.876 1453.08,897.76 1451.63,895.043C1450.18,892.326 1449.45,889.218 1449.45,885.718Z" style="fill:rgb(18,49,73);fill-rule:nonzero;"/>
                <path d="M1493.5,872.768C1491.77,872.768 1490.38,872.293 1489.33,871.343C1488.28,870.393 1487.75,869.201 1487.75,867.768C1487.75,866.301 1488.28,865.085 1489.33,864.118C1490.38,863.151 1491.77,862.668 1493.5,862.668C1495.2,862.668 1496.58,863.151 1497.63,864.118C1498.68,865.085 1499.2,866.301 1499.2,867.768C1499.2,869.201 1498.68,870.393 1497.63,871.343C1496.58,872.293 1495.2,872.768 1493.5,872.768ZM1498.35,875.368L1498.35,903.418L1488.55,903.418L1488.55,875.368L1498.35,875.368Z" style="fill:rgb(18,49,73);fill-rule:nonzero;"/>
                <path d="M1513.75,880.318C1514.85,878.718 1516.18,877.451 1517.75,876.518C1519.32,875.585 1521,875.118 1522.8,875.118L1522.8,885.568L1520.05,885.568C1517.92,885.568 1516.33,885.985 1515.3,886.818C1514.27,887.651 1513.75,889.101 1513.75,891.168L1513.75,903.418L1503.95,903.418L1503.95,875.368L1513.75,875.368L1513.75,880.318Z" style="fill:rgb(18,49,73);fill-rule:nonzero;"/>
                <path d="M1524.7,889.518C1524.7,886.751 1525.28,884.276 1526.43,882.093C1527.58,879.91 1529.11,878.201 1531.03,876.968C1532.94,875.735 1535.03,875.118 1537.3,875.118C1540.57,875.118 1543.1,876.151 1544.9,878.218L1544.9,875.368L1554.7,875.368L1554.7,916.818L1544.9,916.818L1544.9,900.118C1542.83,902.551 1540.28,903.768 1537.25,903.768C1534.98,903.768 1532.89,903.168 1530.98,901.968C1529.06,900.768 1527.53,899.085 1526.4,896.918C1525.27,894.751 1524.7,892.285 1524.7,889.518ZM1544.9,889.368C1544.9,887.501 1544.38,886.076 1543.33,885.093C1542.28,884.11 1541.1,883.618 1539.8,883.618C1538.5,883.618 1537.33,884.126 1536.28,885.143C1535.23,886.16 1534.7,887.618 1534.7,889.518C1534.7,891.418 1535.22,892.843 1536.25,893.793C1537.28,894.743 1538.47,895.218 1539.8,895.218C1541.1,895.218 1542.28,894.718 1543.33,893.718C1544.38,892.718 1544.9,891.268 1544.9,889.368Z" style="fill:rgb(18,49,73);fill-rule:nonzero;"/>
                <path d="M1589,875.368L1589,903.418L1579.15,903.418L1579.15,899.418C1578.32,900.685 1577.17,901.71 1575.7,902.493C1574.23,903.276 1572.55,903.668 1570.65,903.668C1567.38,903.668 1564.81,902.593 1562.93,900.443C1561.04,898.293 1560.1,895.368 1560.1,891.668L1560.1,875.368L1569.85,875.368L1569.85,890.418C1569.85,892.018 1570.28,893.276 1571.13,894.193C1571.98,895.11 1573.1,895.568 1574.5,895.568C1575.93,895.568 1577.07,895.11 1577.9,894.193C1578.73,893.276 1579.15,892.018 1579.15,890.418L1579.15,875.368L1589,875.368Z" style="fill:rgb(18,49,73);fill-rule:nonzero;"/>
                <rect x="1594.6" y="866.418" width="9.8" height="37" style="fill:rgb(18,49,73);fill-rule:nonzero;"/>
                <path d="M1608.4,889.368C1608.4,886.468 1608.93,883.935 1609.98,881.768C1611.03,879.601 1612.46,877.935 1614.28,876.768C1616.09,875.601 1618.12,875.018 1620.35,875.018C1622.28,875.018 1623.95,875.401 1625.35,876.168C1626.75,876.935 1627.83,877.968 1628.6,879.268L1628.6,875.368L1638.4,875.368L1638.4,903.418L1628.6,903.418L1628.6,899.518C1627.83,900.818 1626.74,901.851 1625.33,902.618C1623.91,903.385 1622.25,903.768 1620.35,903.768C1618.12,903.768 1616.09,903.185 1614.28,902.018C1612.46,900.851 1611.03,899.176 1609.98,896.993C1608.93,894.81 1608.4,892.268 1608.4,889.368ZM1628.6,889.368C1628.6,887.568 1628.11,886.151 1627.13,885.118C1626.14,884.085 1624.93,883.568 1623.5,883.568C1622.03,883.568 1620.82,884.076 1619.85,885.093C1618.88,886.11 1618.4,887.535 1618.4,889.368C1618.4,891.168 1618.88,892.593 1619.85,893.643C1620.82,894.693 1622.03,895.218 1623.5,895.218C1624.93,895.218 1626.14,894.701 1627.13,893.668C1628.11,892.635 1628.6,891.201 1628.6,889.368Z" style="fill:rgb(18,49,73);fill-rule:nonzero;"/>
                <path d="M1653.8,880.318C1654.9,878.718 1656.23,877.451 1657.8,876.518C1659.37,875.585 1661.05,875.118 1662.85,875.118L1662.85,885.568L1660.1,885.568C1657.97,885.568 1656.38,885.985 1655.35,886.818C1654.32,887.651 1653.8,889.101 1653.8,891.168L1653.8,903.418L1644,903.418L1644,875.368L1653.8,875.368L1653.8,880.318Z" style="fill:rgb(18,49,73);fill-rule:nonzero;"/>
                <path d="M1692.1,875.518L1677.1,875.518L1677.1,881.068C1677.73,880.401 1678.6,879.868 1679.7,879.468C1680.8,879.068 1682.02,878.868 1683.35,878.868C1685.75,878.868 1687.76,879.418 1689.38,880.518C1690.99,881.618 1692.18,883.068 1692.95,884.868C1693.72,886.668 1694.1,888.635 1694.1,890.768C1694.1,894.701 1692.98,897.793 1690.75,900.043C1688.52,902.293 1685.42,903.418 1681.45,903.418C1678.68,903.418 1676.29,902.943 1674.28,901.993C1672.26,901.043 1670.72,899.718 1669.65,898.018C1668.58,896.318 1668.03,894.368 1668,892.168L1677.55,892.168C1677.65,892.935 1677.98,893.601 1678.55,894.168C1679.12,894.735 1679.95,895.018 1681.05,895.018C1682.22,895.018 1683.1,894.618 1683.7,893.818C1684.3,893.018 1684.6,891.951 1684.6,890.618C1684.6,889.318 1684.28,888.326 1683.65,887.643C1683.02,886.96 1682.1,886.618 1680.9,886.618C1680,886.618 1679.28,886.843 1678.73,887.293C1678.18,887.743 1677.85,888.301 1677.75,888.968L1668.2,888.968L1668.2,866.868L1692.1,866.868L1692.1,875.518Z" style="fill:rgb(18,49,73);fill-rule:nonzero;"/>
            </g>
            <g transform="matrix(2.47982,0,0,2.47982,-1525.21,-2864.57)">
                <path d="M924.76,1757.15L910.21,1757.15L907.71,1764.25L901.76,1764.25L914.21,1729.45L920.81,1729.45L933.26,1764.25L927.26,1764.25L924.76,1757.15ZM923.16,1752.5L917.51,1736.35L911.81,1752.5L923.16,1752.5Z" style="fill:rgb(58,68,77);fill-rule:nonzero;"/>
                <path d="M961.66,1764.7C959.493,1764.7 957.552,1764.31 955.835,1763.53C954.118,1762.74 952.76,1761.68 951.76,1760.33C950.76,1758.98 950.227,1757.47 950.16,1755.8L956.06,1755.8C956.16,1756.97 956.718,1757.94 957.735,1758.73C958.752,1759.51 960.027,1759.9 961.56,1759.9C963.16,1759.9 964.402,1759.59 965.285,1758.98C966.168,1758.36 966.61,1757.57 966.61,1756.6C966.61,1755.57 966.118,1754.8 965.135,1754.3C964.152,1753.8 962.593,1753.25 960.46,1752.65C958.393,1752.09 956.71,1751.54 955.41,1751C954.11,1750.47 952.985,1749.65 952.035,1748.55C951.085,1747.45 950.61,1746 950.61,1744.2C950.61,1742.74 951.043,1741.39 951.91,1740.18C952.777,1738.96 954.018,1738 955.635,1737.3C957.252,1736.6 959.11,1736.25 961.21,1736.25C964.343,1736.25 966.868,1737.04 968.785,1738.63C970.702,1740.21 971.727,1742.37 971.86,1745.1L966.16,1745.1C966.06,1743.87 965.56,1742.88 964.66,1742.15C963.76,1741.42 962.543,1741.05 961.01,1741.05C959.51,1741.05 958.36,1741.34 957.56,1741.9C956.76,1742.47 956.36,1743.22 956.36,1744.15C956.36,1744.88 956.627,1745.5 957.16,1746C957.693,1746.5 958.343,1746.89 959.11,1747.18C959.877,1747.46 961.01,1747.82 962.51,1748.25C964.51,1748.79 966.152,1749.33 967.435,1749.88C968.718,1750.43 969.827,1751.24 970.76,1752.3C971.693,1753.37 972.177,1754.79 972.21,1756.55C972.21,1758.12 971.777,1759.52 970.91,1760.75C970.043,1761.99 968.818,1762.95 967.235,1763.65C965.652,1764.35 963.793,1764.7 961.66,1764.7Z" style="fill:rgb(58,68,77);fill-rule:nonzero;"/>
                <path d="M985.01,1741.35L985.01,1756.6C985.01,1757.63 985.252,1758.38 985.735,1758.83C986.218,1759.28 987.043,1759.5 988.21,1759.5L991.71,1759.5L991.71,1764.25L987.21,1764.25C984.643,1764.25 982.677,1763.65 981.31,1762.45C979.943,1761.25 979.26,1759.3 979.26,1756.6L979.26,1741.35L976.01,1741.35L976.01,1736.7L979.26,1736.7L979.26,1729.85L985.01,1729.85L985.01,1736.7L991.71,1736.7L991.71,1741.35L985.01,1741.35Z" style="fill:rgb(58,68,77);fill-rule:nonzero;"/>
                <path d="M995.06,1750.35C995.06,1747.59 995.635,1745.13 996.785,1743C997.935,1740.87 999.502,1739.21 1001.49,1738.03C1003.47,1736.84 1005.66,1736.25 1008.06,1736.25C1010.23,1736.25 1012.12,1736.68 1013.74,1737.53C1015.35,1738.38 1016.64,1739.43 1017.61,1740.7L1017.61,1736.7L1023.36,1736.7L1023.36,1764.25L1017.61,1764.25L1017.61,1760.15C1016.64,1761.45 1015.33,1762.54 1013.66,1763.4C1011.99,1764.27 1010.09,1764.7 1007.96,1764.7C1005.59,1764.7 1003.43,1764.09 1001.46,1762.88C999.493,1761.66 997.935,1759.96 996.785,1757.78C995.635,1755.59 995.06,1753.12 995.06,1750.35ZM1017.61,1750.45C1017.61,1748.55 1017.22,1746.9 1016.44,1745.5C1015.65,1744.1 1014.63,1743.04 1013.36,1742.3C1012.09,1741.57 1010.73,1741.2 1009.26,1741.2C1007.79,1741.2 1006.43,1741.56 1005.16,1742.28C1003.89,1742.99 1002.87,1744.04 1002.09,1745.43C1001.3,1746.81 1000.91,1748.45 1000.91,1750.35C1000.91,1752.25 1001.3,1753.92 1002.09,1755.35C1002.87,1756.79 1003.9,1757.88 1005.19,1758.63C1006.47,1759.38 1007.83,1759.75 1009.26,1759.75C1010.73,1759.75 1012.09,1759.38 1013.36,1758.65C1014.63,1757.92 1015.65,1756.84 1016.44,1755.43C1017.22,1754.01 1017.61,1752.35 1017.61,1750.45Z" style="fill:rgb(58,68,77);fill-rule:nonzero;"/>
                <path d="M1036.56,1740.7C1037.39,1739.3 1038.5,1738.21 1039.88,1737.43C1041.27,1736.64 1042.91,1736.25 1044.81,1736.25L1044.81,1742.15L1043.36,1742.15C1041.13,1742.15 1039.43,1742.72 1038.29,1743.85C1037.13,1744.99 1036.56,1746.95 1036.56,1749.75L1036.56,1764.25L1030.86,1764.25L1030.86,1736.7L1036.56,1736.7L1036.56,1740.7Z" style="fill:rgb(58,68,77);fill-rule:nonzero;"/>
                <path d="M1056.71,1741.35L1056.71,1756.6C1056.71,1757.63 1056.95,1758.38 1057.43,1758.83C1057.92,1759.28 1058.74,1759.5 1059.91,1759.5L1063.41,1759.5L1063.41,1764.25L1058.91,1764.25C1056.34,1764.25 1054.38,1763.65 1053.01,1762.45C1051.64,1761.25 1050.96,1759.3 1050.96,1756.6L1050.96,1741.35L1047.71,1741.35L1047.71,1736.7L1050.96,1736.7L1050.96,1729.85L1056.71,1729.85L1056.71,1736.7L1063.41,1736.7L1063.41,1741.35L1056.71,1741.35Z" style="fill:rgb(58,68,77);fill-rule:nonzero;"/>
                <path d="M1093.91,1749.8C1093.91,1750.84 1093.84,1751.77 1093.71,1752.6L1072.66,1752.6C1072.83,1754.8 1073.64,1756.57 1075.11,1757.9C1076.58,1759.24 1078.38,1759.9 1080.51,1759.9C1083.58,1759.9 1085.74,1758.62 1087.01,1756.05L1093.16,1756.05C1092.33,1758.59 1090.82,1760.66 1088.63,1762.28C1086.45,1763.89 1083.74,1764.7 1080.51,1764.7C1077.88,1764.7 1075.52,1764.11 1073.43,1762.93C1071.35,1761.74 1069.72,1760.08 1068.54,1757.93C1067.35,1755.78 1066.76,1753.29 1066.76,1750.45C1066.76,1747.62 1067.34,1745.13 1068.49,1742.98C1069.63,1740.83 1071.25,1739.17 1073.34,1738C1075.42,1736.84 1077.81,1736.25 1080.51,1736.25C1083.11,1736.25 1085.43,1736.82 1087.46,1737.95C1089.49,1739.09 1091.08,1740.68 1092.21,1742.73C1093.34,1744.78 1093.91,1747.13 1093.91,1749.8ZM1087.96,1748C1087.93,1745.9 1087.18,1744.22 1085.71,1742.95C1084.24,1741.68 1082.43,1741.05 1080.26,1741.05C1078.29,1741.05 1076.61,1741.68 1075.21,1742.93C1073.81,1744.18 1072.98,1745.87 1072.71,1748L1087.96,1748Z" style="fill:rgb(58,68,77);fill-rule:nonzero;"/>
                <path d="M1105.21,1740.7C1106.04,1739.3 1107.15,1738.21 1108.54,1737.43C1109.92,1736.64 1111.56,1736.25 1113.46,1736.25L1113.46,1742.15L1112.01,1742.15C1109.78,1742.15 1108.09,1742.72 1106.93,1743.85C1105.79,1744.99 1105.21,1746.95 1105.21,1749.75L1105.21,1764.25L1099.51,1764.25L1099.51,1736.7L1105.21,1736.7L1105.21,1740.7Z" style="fill:rgb(58,68,77);fill-rule:nonzero;"/>
                <path d="M1129.61,1750.5L1142.31,1764.25L1134.61,1764.25L1124.41,1752.4L1124.41,1764.25L1118.71,1764.25L1118.71,1727.25L1124.41,1727.25L1124.41,1748.75L1134.41,1736.7L1142.31,1736.7L1129.61,1750.5Z" style="fill:rgb(58,68,77);fill-rule:nonzero;"/>
                <path d="M1149.31,1733.05C1148.28,1733.05 1147.41,1732.7 1146.71,1732C1146.01,1731.3 1145.66,1730.43 1145.66,1729.4C1145.66,1728.37 1146.01,1727.5 1146.71,1726.8C1147.41,1726.1 1148.28,1725.75 1149.31,1725.75C1150.31,1725.75 1151.16,1726.1 1151.86,1726.8C1152.56,1727.5 1152.91,1728.37 1152.91,1729.4C1152.91,1730.43 1152.56,1731.3 1151.86,1732C1151.16,1732.7 1150.31,1733.05 1149.31,1733.05ZM1152.11,1736.7L1152.11,1764.25L1146.41,1764.25L1146.41,1736.7L1152.11,1736.7Z" style="fill:rgb(58,68,77);fill-rule:nonzero;"/>
                <path d="M1166.26,1741.35L1166.26,1756.6C1166.26,1757.63 1166.5,1758.38 1166.99,1758.83C1167.47,1759.28 1168.29,1759.5 1169.46,1759.5L1172.96,1759.5L1172.96,1764.25L1168.46,1764.25C1165.89,1764.25 1163.93,1763.65 1162.56,1762.45C1161.19,1761.25 1160.51,1759.3 1160.51,1756.6L1160.51,1741.35L1157.26,1741.35L1157.26,1736.7L1160.51,1736.7L1160.51,1729.85L1166.26,1729.85L1166.26,1736.7L1172.96,1736.7L1172.96,1741.35L1166.26,1741.35Z" style="fill:rgb(58,68,77);fill-rule:nonzero;"/>
                <path d="M1189.31,1750.35C1189.31,1747.59 1189.88,1745.13 1191.04,1743C1192.18,1740.87 1193.75,1739.21 1195.74,1738.03C1197.72,1736.84 1199.93,1736.25 1202.36,1736.25C1204.16,1736.25 1205.93,1736.64 1207.68,1737.43C1209.43,1738.21 1210.83,1739.25 1211.86,1740.55L1211.86,1727.25L1217.61,1727.25L1217.61,1764.25L1211.86,1764.25L1211.86,1760.1C1210.93,1761.43 1209.63,1762.54 1207.99,1763.4C1206.34,1764.27 1204.44,1764.7 1202.31,1764.7C1199.91,1764.7 1197.72,1764.09 1195.74,1762.88C1193.75,1761.66 1192.18,1759.96 1191.04,1757.78C1189.88,1755.59 1189.31,1753.12 1189.31,1750.35ZM1211.86,1750.45C1211.86,1748.55 1211.47,1746.9 1210.68,1745.5C1209.9,1744.1 1208.88,1743.04 1207.61,1742.3C1206.34,1741.57 1204.98,1741.2 1203.51,1741.2C1202.04,1741.2 1200.68,1741.56 1199.41,1742.28C1198.14,1742.99 1197.12,1744.04 1196.34,1745.43C1195.55,1746.81 1195.16,1748.45 1195.16,1750.35C1195.16,1752.25 1195.55,1753.92 1196.34,1755.35C1197.12,1756.79 1198.15,1757.88 1199.43,1758.63C1200.72,1759.38 1202.08,1759.75 1203.51,1759.75C1204.98,1759.75 1206.34,1759.38 1207.61,1758.65C1208.88,1757.92 1209.9,1756.84 1210.68,1755.43C1211.47,1754.01 1211.86,1752.35 1211.86,1750.45Z" style="fill:rgb(58,68,77);fill-rule:nonzero;"/>
                <path d="M1250.36,1749.8C1250.36,1750.84 1250.29,1751.77 1250.16,1752.6L1229.11,1752.6C1229.28,1754.8 1230.09,1756.57 1231.56,1757.9C1233.03,1759.24 1234.83,1759.9 1236.96,1759.9C1240.03,1759.9 1242.19,1758.62 1243.46,1756.05L1249.61,1756.05C1248.78,1758.59 1247.27,1760.66 1245.09,1762.28C1242.9,1763.89 1240.19,1764.7 1236.96,1764.7C1234.33,1764.7 1231.97,1764.11 1229.88,1762.93C1227.8,1761.74 1226.17,1760.08 1224.99,1757.93C1223.8,1755.78 1223.21,1753.29 1223.21,1750.45C1223.21,1747.62 1223.79,1745.13 1224.93,1742.98C1226.09,1740.83 1227.7,1739.17 1229.79,1738C1231.87,1736.84 1234.26,1736.25 1236.96,1736.25C1239.56,1736.25 1241.88,1736.82 1243.91,1737.95C1245.94,1739.09 1247.53,1740.68 1248.66,1742.73C1249.79,1744.78 1250.36,1747.13 1250.36,1749.8ZM1244.41,1748C1244.38,1745.9 1243.63,1744.22 1242.16,1742.95C1240.69,1741.68 1238.88,1741.05 1236.71,1741.05C1234.74,1741.05 1233.06,1741.68 1231.66,1742.93C1230.26,1744.18 1229.43,1745.87 1229.16,1748L1244.41,1748Z" style="fill:rgb(58,68,77);fill-rule:nonzero;"/>
                <path d="M1266.61,1759.15L1274.41,1736.7L1280.46,1736.7L1269.96,1764.25L1263.16,1764.25L1252.71,1736.7L1258.81,1736.7L1266.61,1759.15Z" style="fill:rgb(58,68,77);fill-rule:nonzero;"/>
                <path d="M1310.01,1749.8C1310.01,1750.84 1309.94,1751.77 1309.81,1752.6L1288.76,1752.6C1288.93,1754.8 1289.74,1756.57 1291.21,1757.9C1292.68,1759.24 1294.48,1759.9 1296.61,1759.9C1299.68,1759.9 1301.84,1758.62 1303.11,1756.05L1309.26,1756.05C1308.43,1758.59 1306.92,1760.66 1304.74,1762.28C1302.55,1763.89 1299.84,1764.7 1296.61,1764.7C1293.98,1764.7 1291.62,1764.11 1289.54,1762.93C1287.45,1761.74 1285.82,1760.08 1284.63,1757.93C1283.45,1755.78 1282.86,1753.29 1282.86,1750.45C1282.86,1747.62 1283.43,1745.13 1284.59,1742.98C1285.74,1740.83 1287.35,1739.17 1289.43,1738C1291.52,1736.84 1293.91,1736.25 1296.61,1736.25C1299.21,1736.25 1301.53,1736.82 1303.56,1737.95C1305.59,1739.09 1307.18,1740.68 1308.31,1742.73C1309.44,1744.78 1310.01,1747.13 1310.01,1749.8ZM1304.06,1748C1304.03,1745.9 1303.28,1744.22 1301.81,1742.95C1300.34,1741.68 1298.53,1741.05 1296.36,1741.05C1294.39,1741.05 1292.71,1741.68 1291.31,1742.93C1289.91,1744.18 1289.08,1745.87 1288.81,1748L1304.06,1748Z" style="fill:rgb(58,68,77);fill-rule:nonzero;"/>
                <rect x="1315.61" y="1727.25" width="5.7" height="37" style="fill:rgb(58,68,77);fill-rule:nonzero;"/>
                <path d="M1340.76,1764.7C1338.16,1764.7 1335.81,1764.11 1333.71,1762.93C1331.61,1761.74 1329.96,1760.08 1328.76,1757.93C1327.56,1755.78 1326.96,1753.29 1326.96,1750.45C1326.96,1747.65 1327.58,1745.17 1328.81,1743C1330.04,1740.84 1331.73,1739.17 1333.86,1738C1335.99,1736.84 1338.38,1736.25 1341.01,1736.25C1343.64,1736.25 1346.03,1736.84 1348.16,1738C1350.29,1739.17 1351.98,1740.84 1353.21,1743C1354.44,1745.17 1355.06,1747.65 1355.06,1750.45C1355.06,1753.25 1354.43,1755.74 1353.16,1757.9C1351.89,1760.07 1350.17,1761.74 1347.99,1762.93C1345.8,1764.11 1343.39,1764.7 1340.76,1764.7ZM1340.76,1759.75C1342.23,1759.75 1343.6,1759.4 1344.88,1758.7C1346.17,1758 1347.21,1756.95 1348.01,1755.55C1348.81,1754.15 1349.21,1752.45 1349.21,1750.45C1349.21,1748.45 1348.83,1746.76 1348.06,1745.38C1347.29,1743.99 1346.28,1742.95 1345.01,1742.25C1343.74,1741.55 1342.38,1741.2 1340.91,1741.2C1339.44,1741.2 1338.09,1741.55 1336.84,1742.25C1335.59,1742.95 1334.59,1743.99 1333.86,1745.38C1333.13,1746.76 1332.76,1748.45 1332.76,1750.45C1332.76,1753.42 1333.52,1755.71 1335.04,1757.33C1336.55,1758.94 1338.46,1759.75 1340.76,1759.75Z" style="fill:rgb(58,68,77);fill-rule:nonzero;"/>
                <path d="M1366.41,1740.75C1367.38,1739.49 1368.69,1738.42 1370.36,1737.55C1372.03,1736.68 1373.91,1736.25 1376.01,1736.25C1378.41,1736.25 1380.6,1736.84 1382.59,1738.03C1384.57,1739.21 1386.13,1740.87 1387.26,1743C1388.39,1745.13 1388.96,1747.59 1388.96,1750.35C1388.96,1753.12 1388.39,1755.59 1387.26,1757.78C1386.13,1759.96 1384.57,1761.66 1382.59,1762.88C1380.6,1764.09 1378.41,1764.7 1376.01,1764.7C1373.91,1764.7 1372.04,1764.28 1370.41,1763.43C1368.78,1762.58 1367.44,1761.52 1366.41,1760.25L1366.41,1777.35L1360.71,1777.35L1360.71,1736.7L1366.41,1736.7L1366.41,1740.75ZM1383.16,1750.35C1383.16,1748.45 1382.77,1746.81 1381.99,1745.43C1381.2,1744.04 1380.17,1742.99 1378.88,1742.28C1377.6,1741.56 1376.23,1741.2 1374.76,1741.2C1373.33,1741.2 1371.97,1741.57 1370.68,1742.3C1369.4,1743.04 1368.37,1744.1 1367.59,1745.5C1366.8,1746.9 1366.41,1748.55 1366.41,1750.45C1366.41,1752.35 1366.8,1754.01 1367.59,1755.43C1368.37,1756.84 1369.4,1757.92 1370.68,1758.65C1371.97,1759.38 1373.33,1759.75 1374.76,1759.75C1376.23,1759.75 1377.6,1759.38 1378.88,1758.63C1380.17,1757.88 1381.2,1756.79 1381.99,1755.35C1382.77,1753.92 1383.16,1752.25 1383.16,1750.35Z" style="fill:rgb(58,68,77);fill-rule:nonzero;"/>
                <path d="M1419.86,1749.8C1419.86,1750.84 1419.79,1751.77 1419.66,1752.6L1398.61,1752.6C1398.78,1754.8 1399.59,1756.57 1401.06,1757.9C1402.53,1759.24 1404.33,1759.9 1406.46,1759.9C1409.53,1759.9 1411.69,1758.62 1412.96,1756.05L1419.11,1756.05C1418.28,1758.59 1416.77,1760.66 1414.59,1762.28C1412.4,1763.89 1409.69,1764.7 1406.46,1764.7C1403.83,1764.7 1401.47,1764.11 1399.38,1762.93C1397.3,1761.74 1395.67,1760.08 1394.49,1757.93C1393.3,1755.78 1392.71,1753.29 1392.71,1750.45C1392.71,1747.62 1393.29,1745.13 1394.43,1742.98C1395.59,1740.83 1397.2,1739.17 1399.29,1738C1401.37,1736.84 1403.76,1736.25 1406.46,1736.25C1409.06,1736.25 1411.38,1736.82 1413.41,1737.95C1415.44,1739.09 1417.03,1740.68 1418.16,1742.73C1419.29,1744.78 1419.86,1747.13 1419.86,1749.8ZM1413.91,1748C1413.88,1745.9 1413.13,1744.22 1411.66,1742.95C1410.19,1741.68 1408.38,1741.05 1406.21,1741.05C1404.24,1741.05 1402.56,1741.68 1401.16,1742.93C1399.76,1744.18 1398.93,1745.87 1398.66,1748L1413.91,1748Z" style="fill:rgb(58,68,77);fill-rule:nonzero;"/>
                <path d="M1423.56,1750.35C1423.56,1747.59 1424.13,1745.13 1425.29,1743C1426.43,1740.87 1428,1739.21 1429.99,1738.03C1431.97,1736.84 1434.18,1736.25 1436.61,1736.25C1438.41,1736.25 1440.18,1736.64 1441.93,1737.43C1443.68,1738.21 1445.08,1739.25 1446.11,1740.55L1446.11,1727.25L1451.86,1727.25L1451.86,1764.25L1446.11,1764.25L1446.11,1760.1C1445.18,1761.43 1443.88,1762.54 1442.24,1763.4C1440.59,1764.27 1438.69,1764.7 1436.56,1764.7C1434.16,1764.7 1431.97,1764.09 1429.99,1762.88C1428,1761.66 1426.43,1759.96 1425.29,1757.78C1424.13,1755.59 1423.56,1753.12 1423.56,1750.35ZM1446.11,1750.45C1446.11,1748.55 1445.72,1746.9 1444.93,1745.5C1444.15,1744.1 1443.13,1743.04 1441.86,1742.3C1440.59,1741.57 1439.23,1741.2 1437.76,1741.2C1436.29,1741.2 1434.93,1741.56 1433.66,1742.28C1432.39,1742.99 1431.37,1744.04 1430.59,1745.43C1429.8,1746.81 1429.41,1748.45 1429.41,1750.35C1429.41,1752.25 1429.8,1753.92 1430.59,1755.35C1431.37,1756.79 1432.4,1757.88 1433.68,1758.63C1434.97,1759.38 1436.33,1759.75 1437.76,1759.75C1439.23,1759.75 1440.59,1759.38 1441.86,1758.65C1443.13,1757.92 1444.15,1756.84 1444.93,1755.43C1445.72,1754.01 1446.11,1752.35 1446.11,1750.45Z" style="fill:rgb(58,68,77);fill-rule:nonzero;"/>
                <path d="M1478.06,1740.8C1479.03,1739.47 1480.35,1738.38 1482.04,1737.53C1483.72,1736.68 1485.59,1736.25 1487.66,1736.25C1490.09,1736.25 1492.29,1736.84 1494.26,1738C1496.23,1739.17 1497.78,1740.83 1498.91,1742.98C1500.04,1745.13 1500.61,1747.59 1500.61,1750.35C1500.61,1753.12 1500.04,1755.59 1498.91,1757.78C1497.78,1759.96 1496.22,1761.66 1494.24,1762.88C1492.25,1764.09 1490.06,1764.7 1487.66,1764.7C1485.53,1764.7 1483.63,1764.29 1481.99,1763.45C1480.34,1762.62 1479.03,1761.55 1478.06,1760.25L1478.06,1764.25L1472.36,1764.25L1472.36,1727.25L1478.06,1727.25L1478.06,1740.8ZM1494.81,1750.35C1494.81,1748.45 1494.42,1746.81 1493.63,1745.43C1492.85,1744.04 1491.82,1742.99 1490.54,1742.28C1489.25,1741.56 1487.88,1741.2 1486.41,1741.2C1484.98,1741.2 1483.62,1741.57 1482.34,1742.3C1481.05,1743.04 1480.02,1744.1 1479.24,1745.5C1478.45,1746.9 1478.06,1748.55 1478.06,1750.45C1478.06,1752.35 1478.45,1754.01 1479.24,1755.43C1480.02,1756.84 1481.05,1757.92 1482.34,1758.65C1483.62,1759.38 1484.98,1759.75 1486.41,1759.75C1487.88,1759.75 1489.25,1759.38 1490.54,1758.63C1491.82,1757.88 1492.85,1756.79 1493.63,1755.35C1494.42,1753.92 1494.81,1752.25 1494.81,1750.35Z" style="fill:rgb(58,68,77);fill-rule:nonzero;"/>
                <path d="M1531.06,1736.7L1514.16,1777.2L1508.26,1777.2L1513.86,1763.8L1503.01,1736.7L1509.36,1736.7L1517.11,1757.7L1525.16,1736.7L1531.06,1736.7Z" style="fill:rgb(58,68,77);fill-rule:nonzero;"/>
                <path d="M1569.31,1757.15L1554.76,1757.15L1552.26,1764.25L1546.31,1764.25L1558.76,1729.45L1565.36,1729.45L1577.81,1764.25L1571.81,1764.25L1569.31,1757.15ZM1567.71,1752.5L1562.06,1736.35L1556.36,1752.5L1567.71,1752.5Z" style="fill:rgb(58,68,77);fill-rule:nonzero;"/>
                <rect x="1583.21" y="1727.25" width="5.7" height="37" style="fill:rgb(58,68,77);fill-rule:nonzero;"/>
                <path d="M1603.06,1741.35L1603.06,1756.6C1603.06,1757.63 1603.3,1758.38 1603.79,1758.83C1604.27,1759.28 1605.09,1759.5 1606.26,1759.5L1609.76,1759.5L1609.76,1764.25L1605.26,1764.25C1602.69,1764.25 1600.73,1763.65 1599.36,1762.45C1597.99,1761.25 1597.31,1759.3 1597.31,1756.6L1597.31,1741.35L1594.06,1741.35L1594.06,1736.7L1597.31,1736.7L1597.31,1729.85L1603.06,1729.85L1603.06,1736.7L1609.76,1736.7L1609.76,1741.35L1603.06,1741.35Z" style="fill:rgb(58,68,77);fill-rule:nonzero;"/>
                <path d="M1617.91,1733.05C1616.88,1733.05 1616.01,1732.7 1615.31,1732C1614.61,1731.3 1614.26,1730.43 1614.26,1729.4C1614.26,1728.37 1614.61,1727.5 1615.31,1726.8C1616.01,1726.1 1616.88,1725.75 1617.91,1725.75C1618.91,1725.75 1619.76,1726.1 1620.46,1726.8C1621.16,1727.5 1621.51,1728.37 1621.51,1729.4C1621.51,1730.43 1621.16,1731.3 1620.46,1732C1619.76,1732.7 1618.91,1733.05 1617.91,1733.05ZM1620.71,1736.7L1620.71,1764.25L1615.01,1764.25L1615.01,1736.7L1620.71,1736.7Z" style="fill:rgb(58,68,77);fill-rule:nonzero;"/>
                <path d="M1634.86,1741.35L1634.86,1756.6C1634.86,1757.63 1635.1,1758.38 1635.59,1758.83C1636.07,1759.28 1636.89,1759.5 1638.06,1759.5L1641.56,1759.5L1641.56,1764.25L1637.06,1764.25C1634.49,1764.25 1632.53,1763.65 1631.16,1762.45C1629.79,1761.25 1629.11,1759.3 1629.11,1756.6L1629.11,1741.35L1625.86,1741.35L1625.86,1736.7L1629.11,1736.7L1629.11,1729.85L1634.86,1729.85L1634.86,1736.7L1641.56,1736.7L1641.56,1741.35L1634.86,1741.35Z" style="fill:rgb(58,68,77);fill-rule:nonzero;"/>
                <path d="M1671.76,1736.7L1671.76,1764.25L1666.06,1764.25L1666.06,1761C1665.16,1762.13 1663.99,1763.03 1662.54,1763.68C1661.09,1764.33 1659.54,1764.65 1657.91,1764.65C1655.74,1764.65 1653.8,1764.2 1652.09,1763.3C1650.37,1762.4 1649.02,1761.07 1648.04,1759.3C1647.05,1757.54 1646.56,1755.4 1646.56,1752.9L1646.56,1736.7L1652.21,1736.7L1652.21,1752.05C1652.21,1754.52 1652.83,1756.41 1654.06,1757.73C1655.29,1759.04 1656.98,1759.7 1659.11,1759.7C1661.24,1759.7 1662.93,1759.04 1664.18,1757.73C1665.43,1756.41 1666.06,1754.52 1666.06,1752.05L1666.06,1736.7L1671.76,1736.7Z" style="fill:rgb(58,68,77);fill-rule:nonzero;"/>
                <path d="M1677.36,1750.35C1677.36,1747.59 1677.93,1745.13 1679.09,1743C1680.24,1740.87 1681.8,1739.21 1683.79,1738.03C1685.77,1736.84 1687.98,1736.25 1690.41,1736.25C1692.21,1736.25 1693.99,1736.64 1695.74,1737.43C1697.49,1738.21 1698.88,1739.25 1699.91,1740.55L1699.91,1727.25L1705.66,1727.25L1705.66,1764.25L1699.91,1764.25L1699.91,1760.1C1698.98,1761.43 1697.68,1762.54 1696.04,1763.4C1694.38,1764.27 1692.49,1764.7 1690.36,1764.7C1687.96,1764.7 1685.77,1764.09 1683.79,1762.88C1681.8,1761.66 1680.24,1759.96 1679.09,1757.78C1677.93,1755.59 1677.36,1753.12 1677.36,1750.35ZM1699.91,1750.45C1699.91,1748.55 1699.52,1746.9 1698.74,1745.5C1697.95,1744.1 1696.93,1743.04 1695.66,1742.3C1694.39,1741.57 1693.03,1741.2 1691.56,1741.2C1690.09,1741.2 1688.73,1741.56 1687.46,1742.28C1686.19,1742.99 1685.17,1744.04 1684.38,1745.43C1683.6,1746.81 1683.21,1748.45 1683.21,1750.35C1683.21,1752.25 1683.6,1753.92 1684.38,1755.35C1685.17,1756.79 1686.2,1757.88 1687.49,1758.63C1688.77,1759.38 1690.13,1759.75 1691.56,1759.75C1693.03,1759.75 1694.39,1759.38 1695.66,1758.65C1696.93,1757.92 1697.95,1756.84 1698.74,1755.43C1699.52,1754.01 1699.91,1752.35 1699.91,1750.45Z" style="fill:rgb(58,68,77);fill-rule:nonzero;"/>
                <path d="M1738.41,1749.8C1738.41,1750.84 1738.34,1751.77 1738.21,1752.6L1717.16,1752.6C1717.33,1754.8 1718.14,1756.57 1719.61,1757.9C1721.08,1759.24 1722.88,1759.9 1725.01,1759.9C1728.08,1759.9 1730.24,1758.62 1731.51,1756.05L1737.66,1756.05C1736.83,1758.59 1735.32,1760.66 1733.13,1762.28C1730.95,1763.89 1728.24,1764.7 1725.01,1764.7C1722.38,1764.7 1720.02,1764.11 1717.93,1762.93C1715.85,1761.74 1714.22,1760.08 1713.04,1757.93C1711.85,1755.78 1711.26,1753.29 1711.26,1750.45C1711.26,1747.62 1711.84,1745.13 1712.99,1742.98C1714.13,1740.83 1715.75,1739.17 1717.84,1738C1719.92,1736.84 1722.31,1736.25 1725.01,1736.25C1727.61,1736.25 1729.93,1736.82 1731.96,1737.95C1733.99,1739.09 1735.58,1740.68 1736.71,1742.73C1737.84,1744.78 1738.41,1747.13 1738.41,1749.8ZM1732.46,1748C1732.43,1745.9 1731.68,1744.22 1730.21,1742.95C1728.74,1741.68 1726.93,1741.05 1724.76,1741.05C1722.79,1741.05 1721.11,1741.68 1719.71,1742.93C1718.31,1744.18 1717.48,1745.87 1717.21,1748L1732.46,1748Z" style="fill:rgb(58,68,77);fill-rule:nonzero;"/>
                <path d="M1793.61,1729.5L1793.61,1764.25L1787.91,1764.25L1787.91,1740.45L1777.31,1764.25L1773.36,1764.25L1762.71,1740.45L1762.71,1764.25L1757.01,1764.25L1757.01,1729.5L1763.16,1729.5L1775.36,1756.75L1787.51,1729.5L1793.61,1729.5Z" style="fill:rgb(58,68,77);fill-rule:nonzero;"/>
                <path d="M1826.36,1749.8C1826.36,1750.84 1826.29,1751.77 1826.16,1752.6L1805.11,1752.6C1805.28,1754.8 1806.09,1756.57 1807.56,1757.9C1809.03,1759.24 1810.83,1759.9 1812.96,1759.9C1816.03,1759.9 1818.19,1758.62 1819.46,1756.05L1825.61,1756.05C1824.78,1758.59 1823.27,1760.66 1821.09,1762.28C1818.9,1763.89 1816.19,1764.7 1812.96,1764.7C1810.33,1764.7 1807.97,1764.11 1805.88,1762.93C1803.8,1761.74 1802.17,1760.08 1800.99,1757.93C1799.8,1755.78 1799.21,1753.29 1799.21,1750.45C1799.21,1747.62 1799.79,1745.13 1800.93,1742.98C1802.09,1740.83 1803.7,1739.17 1805.79,1738C1807.87,1736.84 1810.26,1736.25 1812.96,1736.25C1815.56,1736.25 1817.88,1736.82 1819.91,1737.95C1821.94,1739.09 1823.53,1740.68 1824.66,1742.73C1825.79,1744.78 1826.36,1747.13 1826.36,1749.8ZM1820.41,1748C1820.38,1745.9 1819.63,1744.22 1818.16,1742.95C1816.69,1741.68 1814.88,1741.05 1812.71,1741.05C1810.74,1741.05 1809.06,1741.68 1807.66,1742.93C1806.26,1744.18 1805.43,1745.87 1805.16,1748L1820.41,1748Z" style="fill:rgb(58,68,77);fill-rule:nonzero;"/>
                <path d="M1830.06,1750.35C1830.06,1747.59 1830.63,1745.13 1831.79,1743C1832.93,1740.87 1834.5,1739.21 1836.49,1738.03C1838.47,1736.84 1840.68,1736.25 1843.11,1736.25C1844.91,1736.25 1846.68,1736.64 1848.43,1737.43C1850.18,1738.21 1851.58,1739.25 1852.61,1740.55L1852.61,1727.25L1858.36,1727.25L1858.36,1764.25L1852.61,1764.25L1852.61,1760.1C1851.68,1761.43 1850.38,1762.54 1848.74,1763.4C1847.09,1764.27 1845.19,1764.7 1843.06,1764.7C1840.66,1764.7 1838.47,1764.09 1836.49,1762.88C1834.5,1761.66 1832.93,1759.96 1831.79,1757.78C1830.63,1755.59 1830.06,1753.12 1830.06,1750.35ZM1852.61,1750.45C1852.61,1748.55 1852.22,1746.9 1851.43,1745.5C1850.65,1744.1 1849.63,1743.04 1848.36,1742.3C1847.09,1741.57 1845.73,1741.2 1844.26,1741.2C1842.79,1741.2 1841.43,1741.56 1840.16,1742.28C1838.89,1742.99 1837.87,1744.04 1837.09,1745.43C1836.3,1746.81 1835.91,1748.45 1835.91,1750.35C1835.91,1752.25 1836.3,1753.92 1837.09,1755.35C1837.87,1756.79 1838.9,1757.88 1840.18,1758.63C1841.47,1759.38 1842.83,1759.75 1844.26,1759.75C1845.73,1759.75 1847.09,1759.38 1848.36,1758.65C1849.63,1757.92 1850.65,1756.84 1851.43,1755.43C1852.22,1754.01 1852.61,1752.35 1852.61,1750.45Z" style="fill:rgb(58,68,77);fill-rule:nonzero;"/>
                <path d="M1868.76,1733.05C1867.73,1733.05 1866.86,1732.7 1866.16,1732C1865.46,1731.3 1865.11,1730.43 1865.11,1729.4C1865.11,1728.37 1865.46,1727.5 1866.16,1726.8C1866.86,1726.1 1867.73,1725.75 1868.76,1725.75C1869.76,1725.75 1870.61,1726.1 1871.31,1726.8C1872.01,1727.5 1872.36,1728.37 1872.36,1729.4C1872.36,1730.43 1872.01,1731.3 1871.31,1732C1870.61,1732.7 1869.76,1733.05 1868.76,1733.05ZM1871.56,1736.7L1871.56,1764.25L1865.86,1764.25L1865.86,1736.7L1871.56,1736.7Z" style="fill:rgb(58,68,77);fill-rule:nonzero;"/>
                <path d="M1877.16,1750.35C1877.16,1747.59 1877.74,1745.13 1878.88,1743C1880.04,1740.87 1881.6,1739.21 1883.59,1738.03C1885.57,1736.84 1887.76,1736.25 1890.16,1736.25C1892.33,1736.25 1894.22,1736.68 1895.84,1737.53C1897.45,1738.38 1898.74,1739.43 1899.71,1740.7L1899.71,1736.7L1905.46,1736.7L1905.46,1764.25L1899.71,1764.25L1899.71,1760.15C1898.74,1761.45 1897.43,1762.54 1895.76,1763.4C1894.09,1764.27 1892.19,1764.7 1890.06,1764.7C1887.69,1764.7 1885.53,1764.09 1883.56,1762.88C1881.59,1761.66 1880.04,1759.96 1878.88,1757.78C1877.74,1755.59 1877.16,1753.12 1877.16,1750.35ZM1899.71,1750.45C1899.71,1748.55 1899.32,1746.9 1898.54,1745.5C1897.75,1744.1 1896.73,1743.04 1895.46,1742.3C1894.19,1741.57 1892.83,1741.2 1891.36,1741.2C1889.89,1741.2 1888.53,1741.56 1887.26,1742.28C1885.99,1742.99 1884.97,1744.04 1884.18,1745.43C1883.4,1746.81 1883.01,1748.45 1883.01,1750.35C1883.01,1752.25 1883.4,1753.92 1884.18,1755.35C1884.97,1756.79 1886,1757.88 1887.29,1758.63C1888.57,1759.38 1889.93,1759.75 1891.36,1759.75C1892.83,1759.75 1894.19,1759.38 1895.46,1758.65C1896.73,1757.92 1897.75,1756.84 1898.54,1755.43C1899.32,1754.01 1899.71,1752.35 1899.71,1750.45Z" style="fill:rgb(58,68,77);fill-rule:nonzero;"/>
            </g>
        </g>
    </g>
    <defs>
        <linearGradient id="_Linear1" x1="0" y1="0" x2="1" y2="0" gradientUnits="userSpaceOnUse" gradientTransform="matrix(1159.07,0,0,1725.85,685.095,1504.76)"><stop offset="0" style="stop-color:rgb(23,65,97);stop-opacity:1"/><stop offset="1" style="stop-color:rgb(12,32,49);stop-opacity:1"/></linearGradient>
    </defs>
</svg>
