<?xml version="1.0" encoding="UTF-8" standalone="no"?>
<!DOCTYPE svg PUBLIC "-//W3C//DTD SVG 1.1//EN" "http://www.w3.org/Graphics/SVG/1.1/DTD/svg11.dtd">
<svg width="100%" height="100%" viewBox="0 0 150 150" version="1.1" xmlns="http://www.w3.org/2000/svg" xmlns:xlink="http://www.w3.org/1999/xlink" xml:space="preserve" xmlns:serif="http://www.serif.com/" style="fill-rule:evenodd;clip-rule:evenodd;stroke-linejoin:round;stroke-miterlimit:2;">
    <g transform="matrix(1,0,0,1,0,-163)">
        <g id="account-activated" transform="matrix(1,0,0,1,0,163)">
            <rect x="0" y="0" width="150" height="150" style="fill:none;"/>
            <circle cx="75" cy="75" r="75" style="fill:rgb(64,159,68);"/>
            <path d="M75,0C116.394,0 150,33.606 150,75C150,116.394 116.394,150 75,150C33.606,150 0,116.394 0,75C0,33.606 33.606,0 75,0ZM75,4.167C35.906,4.167 4.167,35.906 4.167,75C4.167,114.094 35.906,145.833 75,145.833C114.094,145.833 145.833,114.094 145.833,75C145.833,35.906 114.094,4.167 75,4.167Z" style="fill:white;"/>
            <g transform="matrix(0.8,0,0,0.8,75,75)">
                <g transform="matrix(1,0,0,1,-50,-50)">
                    <g transform="matrix(4.16667,0,0,4.16667,0,0)">
                        <path d="M5.5,11C7.43,11 9,9.43 9,7.5C9,5.57 7.43,4 5.5,4C3.57,4 2,5.57 2,7.5C2,9.43 3.57,11 5.5,11ZM5.5,6C6.327,6 7,6.673 7,7.5C7,8.327 6.327,9 5.5,9C4.673,9 4,8.327 4,7.5C4,6.673 4.673,6 5.5,6ZM8.831,14.314C8.522,14.773 7.902,14.896 7.443,14.588C6.868,14.202 6.196,13.999 5.5,13.999C3.713,13.999 2.218,15.336 2.021,17.109C1.964,17.62 1.531,17.999 1.028,17.999C0.992,17.999 0.955,17.997 0.917,17.993C0.368,17.932 -0.027,17.437 0.033,16.889C0.342,14.102 2.692,11.999 5.5,11.999C6.594,11.999 7.65,12.319 8.557,12.926C9.016,13.234 9.139,13.855 8.831,14.314ZM15.5,7C17.43,7 19,5.43 19,3.5C19,1.57 17.43,0 15.5,0C13.57,0 12,1.57 12,3.5C12,5.43 13.57,7 15.5,7ZM15.5,2C16.327,2 17,2.673 17,3.5C17,4.327 16.327,5 15.5,5C14.673,5 14,4.327 14,3.5C14,2.673 14.673,2 15.5,2ZM17,10C13.141,10 10,13.141 10,17C10,20.859 13.141,24 17,24C20.859,24 24,20.859 24,17C24,13.141 20.859,10 17,10ZM17,22C14.243,22 12,19.757 12,17C12,14.243 14.243,12 17,12C19.757,12 22,14.243 22,17C22,19.757 19.757,22 17,22ZM20.222,15.788C20.604,16.186 20.591,16.819 20.193,17.202L17.98,19.326C17.528,19.772 16.928,19.997 16.327,19.997C15.726,19.997 15.124,19.772 14.664,19.323L13.532,18.214C13.137,17.827 13.132,17.194 13.518,16.8C13.904,16.405 14.537,16.399 14.932,16.786L16.063,17.894C16.207,18.036 16.442,18.033 16.585,17.892L18.808,15.758C19.205,15.377 19.839,15.388 20.222,15.787L20.222,15.788Z" style="fill:white;fill-rule:nonzero;"/>
                    </g>
                </g>
            </g>
        </g>
    </g>
</svg>
