<?xml version="1.0" encoding="UTF-8" standalone="no"?>
<!DOCTYPE svg PUBLIC "-//W3C//DTD SVG 1.1//EN" "http://www.w3.org/Graphics/SVG/1.1/DTD/svg11.dtd">
<svg width="100%" height="100%" viewBox="0 0 150 150" version="1.1" xmlns="http://www.w3.org/2000/svg" xmlns:xlink="http://www.w3.org/1999/xlink" xml:space="preserve" xmlns:serif="http://www.serif.com/" style="fill-rule:evenodd;clip-rule:evenodd;stroke-linejoin:round;stroke-miterlimit:2;">
    <g transform="matrix(1,0,0,1,-159,-163)">
        <g id="account-suspended" transform="matrix(1,0,0,1,159,163)">
            <rect x="0" y="0" width="150" height="150" style="fill:none;"/>
            <circle cx="75" cy="75" r="75" style="fill:rgb(217,75,49);"/>
            <path d="M75,0C116.394,0 150,33.606 150,75C150,116.394 116.394,150 75,150C33.606,150 0,116.394 0,75C0,33.606 33.606,0 75,0ZM75,4.167C35.906,4.167 4.167,35.906 4.167,75C4.167,114.094 35.906,145.833 75,145.833C114.094,145.833 145.833,114.094 145.833,75C145.833,35.906 114.094,4.167 75,4.167Z" style="fill:white;"/>
            <g transform="matrix(0.8,0,0,0.8,75,75)">
                <g transform="matrix(1,0,0,1,-50,-50)">
                    <clipPath id="_clip1">
                        <rect x="0" y="0" width="100" height="100"/>
                    </clipPath>
                    <g clip-path="url(#_clip1)">
                        <g transform="matrix(4.16667,0,0,4.16667,0,0)">
                            <path d="M22.251,22.229C23.331,21.143 24,19.648 24,18C24,14.691 21.309,12 18,12C14.692,12 12.001,14.692 12,18C12,21.309 14.691,24 18,24C19.66,24 21.165,23.321 22.251,22.229ZM22,18C22,18.74 21.784,19.424 21.433,20.019L15.981,14.566C16.576,14.215 17.26,13.999 18,13.999C20.206,13.999 22,15.793 22,17.999L22,18ZM14,18C14,17.26 14.216,16.576 14.567,15.981L20.019,21.434C19.424,21.785 18.74,22.001 18,22.001C15.794,22.001 14,20.207 14,18.001L14,18ZM9,12C12.309,12 15,9.309 15,6C15,2.691 12.309,0 9,0C5.691,0 3,2.691 3,6C3,9.309 5.691,12 9,12ZM9,2C11.206,2 13,3.794 13,6C13,8.206 11.206,10 9,10C6.794,10 5,8.206 5,6C5,3.794 6.794,2 9,2ZM10.992,15.187C10.924,15.734 10.429,16.125 9.876,16.055C9.589,16.019 9.297,16.001 9,16.001C5.141,16.001 2,19.141 2,23.001C2,23.553 1.553,24.001 1,24.001C0.447,24.001 0,23.553 0,23.001C0,18.039 4.037,14.001 9,14.001C9.377,14.001 9.755,14.024 10.124,14.071C10.673,14.14 11.061,14.639 10.992,15.188L10.992,15.187Z" style="fill:white;fill-rule:nonzero;"/>
                        </g>
                    </g>
                </g>
            </g>
        </g>
    </g>
</svg>
