<?xml version="1.0" encoding="UTF-8" standalone="no"?>
<!DOCTYPE svg PUBLIC "-//W3C//DTD SVG 1.1//EN" "http://www.w3.org/Graphics/SVG/1.1/DTD/svg11.dtd">
<svg width="100%" height="100%" viewBox="0 0 150 150" version="1.1" xmlns="http://www.w3.org/2000/svg" xmlns:xlink="http://www.w3.org/1999/xlink" xml:space="preserve" xmlns:serif="http://www.serif.com/" style="fill-rule:evenodd;clip-rule:evenodd;stroke-linejoin:round;stroke-miterlimit:2;">
    <g transform="matrix(1,0,0,1,-159,-327)">
        <g id="pending-approval" transform="matrix(1,0,0,1,159,327)">
            <rect x="0" y="0" width="150" height="150" style="fill:none;"/>
            <circle cx="75" cy="75" r="75" style="fill:rgb(79,142,255);"/>
            <path d="M75,0C116.394,0 150,33.606 150,75C150,116.394 116.394,150 75,150C33.606,150 0,116.394 0,75C0,33.606 33.606,0 75,0ZM75,4.167C35.906,4.167 4.167,35.906 4.167,75C4.167,114.094 35.906,145.833 75,145.833C114.094,145.833 145.833,114.094 145.833,75C145.833,35.906 114.094,4.167 75,4.167Z" style="fill:white;"/>
            <g transform="matrix(0.8,0,0,0.8,74,75)">
                <g transform="matrix(1,0,0,1,-50,-50)">
                    <g transform="matrix(4.16667,0,0,4.16667,0,0)">
                        <path d="M17.5,24C13.916,24 11,21.084 11,17.5C11,13.916 13.916,11 17.5,11C21.084,11 24,13.916 24,17.5C24,21.084 21.084,24 17.5,24ZM17.5,13C15.019,13 13,15.019 13,17.5C13,19.981 15.019,22 17.5,22C19.981,22 22,19.981 22,17.5C22,15.019 19.981,13 17.5,13ZM18.499,19.354L20.385,17.521C20.781,17.136 20.79,16.503 20.406,16.107C20.021,15.712 19.388,15.701 18.992,16.087L17.1,17.925C17.001,18.025 16.838,18.025 16.738,17.925L15.862,17.067C15.467,16.681 14.835,16.688 14.448,17.083C14.061,17.478 14.068,18.11 14.463,18.497L15.339,19.355C15.776,19.783 16.349,19.996 16.921,19.996C17.493,19.996 18.067,19.781 18.5,19.353L18.499,19.354ZM9,12C5.691,12 3,9.309 3,6C3,2.691 5.691,0 9,0C12.309,0 15,2.691 15,6C15,9.309 12.309,12 9,12ZM9,2C6.794,2 5,3.794 5,6C5,8.206 6.794,10 9,10C11.206,10 13,8.206 13,6C13,3.794 11.206,2 9,2ZM2,23C2,19.476 4.633,16.489 8.124,16.054C8.672,15.986 9.061,15.486 8.993,14.938C8.925,14.39 8.419,14.007 7.877,14.07C3.386,14.629 0,18.469 0,23C0,23.553 0.448,24 1,24C1.552,24 2,23.553 2,23Z" style="fill:white;fill-rule:nonzero;"/>
                    </g>
                </g>
            </g>
        </g>
    </g>
</svg>
