<?xml version="1.0" encoding="UTF-8" standalone="no"?>
<!DOCTYPE svg PUBLIC "-//W3C//DTD SVG 1.1//EN" "http://www.w3.org/Graphics/SVG/1.1/DTD/svg11.dtd">
<svg width="100%" height="100%" viewBox="0 0 150 150" version="1.1" xmlns="http://www.w3.org/2000/svg" xmlns:xlink="http://www.w3.org/1999/xlink" xml:space="preserve" xmlns:serif="http://www.serif.com/" style="fill-rule:evenodd;clip-rule:evenodd;stroke-linejoin:round;stroke-miterlimit:2;">
    <g transform="matrix(1,0,0,1,-480,-327)">
        <g id="new-account-by-admin" transform="matrix(1,0,0,1,480,327)">
            <rect x="0" y="0" width="150" height="150" style="fill:none;"/>
            <circle cx="75" cy="75" r="75" style="fill:rgb(79,142,255);"/>
            <path d="M75,0C116.394,0 150,33.606 150,75C150,116.394 116.394,150 75,150C33.606,150 0,116.394 0,75C0,33.606 33.606,0 75,0ZM75,4.167C35.906,4.167 4.167,35.906 4.167,75C4.167,114.094 35.906,145.833 75,145.833C114.094,145.833 145.833,114.094 145.833,75C145.833,35.906 114.094,4.167 75,4.167Z" style="fill:white;"/>
            <g transform="matrix(0.8,0,0,0.8,75,75)">
                <g transform="matrix(1,0,0,1,-50,-50)">
                    <clipPath id="_clip1">
                        <rect x="0" y="0" width="100" height="100"/>
                    </clipPath>
                    <g clip-path="url(#_clip1)">
                        <g transform="matrix(4.16667,0,0,4.16667,0,0)">
                            <path d="M5.5,7C7.43,7 9,5.43 9,3.5C9,1.57 7.43,0 5.5,0C3.57,0 2,1.57 2,3.5C2,5.43 3.57,7 5.5,7ZM5.5,2C6.327,2 7,2.673 7,3.5C7,4.327 6.327,5 5.5,5C4.673,5 4,4.327 4,3.5C4,2.673 4.673,2 5.5,2ZM17.5,17C19.981,17 22,14.981 22,12.5C22,10.019 19.981,8 17.5,8C15.019,8 13,10.019 13,12.5C13,14.981 15.019,17 17.5,17ZM17.5,10C18.879,10 20,11.121 20,12.5C20,13.879 18.879,15 17.5,15C16.121,15 15,13.879 15,12.5C15,11.121 16.121,10 17.5,10ZM8.433,18.607C9.193,19.369 9.193,20.63 8.42,21.405L6.221,23.693C6.025,23.897 5.763,24 5.5,24C5.25,24 5.001,23.907 4.807,23.721C4.409,23.338 4.396,22.705 4.779,22.307L6.035,21L4,21C1.794,21 0,19.206 0,17L0,16C0,15.447 0.448,15 1,15C1.552,15 2,15.447 2,16L2,17C2,18.103 2.897,19 4,19L6.029,19L4.779,17.693C4.396,17.295 4.408,16.662 4.807,16.279C5.205,15.897 5.838,15.908 6.221,16.306L8.433,18.607ZM23.283,23.959C23.188,23.987 23.094,24 23.001,24C22.568,24 22.17,23.718 22.042,23.282C21.474,21.349 19.606,20 17.501,20C15.396,20 13.528,21.35 12.96,23.282C12.804,23.811 12.25,24.118 11.718,23.959C11.188,23.804 10.885,23.248 11.041,22.718C11.858,19.941 14.514,18 17.5,18C20.486,18 23.143,19.94 23.959,22.718C24.115,23.248 23.812,23.804 23.282,23.959L23.283,23.959ZM10.352,12.937C10.236,12.98 10.118,13 10.001,13C9.596,13 9.215,12.753 9.064,12.351C8.537,10.945 7.105,10 5.501,10C3.897,10 2.464,10.944 1.938,12.351C1.744,12.87 1.167,13.128 0.65,12.937C0.133,12.743 -0.129,12.166 0.065,11.65C0.883,9.467 3.068,8.001 5.502,8.001C7.936,8.001 10.12,9.468 10.939,11.65C11.133,12.167 10.871,12.743 10.354,12.937L10.352,12.937Z" style="fill:white;fill-rule:nonzero;"/>
                        </g>
                    </g>
                </g>
            </g>
        </g>
    </g>
</svg>
