<?xml version="1.0" encoding="UTF-8" standalone="no"?>
<!DOCTYPE svg PUBLIC "-//W3C//DTD SVG 1.1//EN" "http://www.w3.org/Graphics/SVG/1.1/DTD/svg11.dtd">
<svg width="100%" height="100%" viewBox="0 0 150 150" version="1.1" xmlns="http://www.w3.org/2000/svg" xmlns:xlink="http://www.w3.org/1999/xlink" xml:space="preserve" xmlns:serif="http://www.serif.com/" style="fill-rule:evenodd;clip-rule:evenodd;stroke-linejoin:round;stroke-miterlimit:2;">
    <g transform="matrix(1,0,0,1,0,-327)">
        <g id="pending-approval" transform="matrix(1,0,0,1,0,327)">
            <rect x="0" y="0" width="150" height="150" style="fill:none;"/>
            <circle cx="75" cy="75" r="75" style="fill:rgb(255,193,7);"/>
            <path d="M75,0C116.394,0 150,33.606 150,75C150,116.394 116.394,150 75,150C33.606,150 0,116.394 0,75C0,33.606 33.606,0 75,0ZM75,4.167C35.906,4.167 4.167,35.906 4.167,75C4.167,114.094 35.906,145.833 75,145.833C114.094,145.833 145.833,114.094 145.833,75C145.833,35.906 114.094,4.167 75,4.167Z" style="fill:white;"/>
            <g transform="matrix(0.0375,0,0,0.0375,75,75)">
                <g transform="matrix(1,0,0,1,-1066.67,-1066.67)">
                    <clipPath id="_clip1">
                        <rect x="0" y="0" width="2133.33" height="2133.33"/>
                    </clipPath>
                    <g clip-path="url(#_clip1)">
                        <g transform="matrix(88.8889,0,0,88.8889,0,0)">
                            <path d="M17,24C13.16,24 10,20.84 10,17C10,13.16 13.16,10 17,10C20.84,10 24,13.16 24,17C23.996,20.838 20.838,23.996 17,24ZM17,12C14.257,12 12,14.257 12,17C12,19.743 14.257,22 17,22C19.743,22 22,19.743 22,17C21.997,14.258 19.742,12.003 17,12ZM18.707,18.707C19.095,18.319 19.095,17.681 18.707,17.293L18,16.586L18,15C18,14.451 17.549,14 17,14C16.451,14 16,14.451 16,15L16,17C16,17.265 16.106,17.52 16.293,17.707L17.293,18.707C17.681,19.095 18.319,19.095 18.707,18.707ZM2,23C2.005,19.233 4.574,15.92 8.221,14.976C8.675,14.873 9.001,14.466 9.001,14C9.001,13.451 8.549,12.999 8,12.999C7.926,12.999 7.852,13.008 7.779,13.024C3.206,14.146 -0.026,18.292 0,23C0,23.549 0.451,24 1,24C1.549,24 2,23.549 2,23ZM8.474,11C5.457,11 2.974,8.517 2.974,5.5C2.974,2.483 5.457,0 8.474,0C11.491,-0 13.974,2.483 13.974,5.5C13.971,8.516 11.49,10.997 8.474,11ZM8.474,2C6.554,2 4.974,3.58 4.974,5.5C4.974,7.42 6.554,9 8.474,9C10.394,9 11.974,7.42 11.974,5.5C11.974,3.58 10.394,2 8.474,2Z" style="fill:white;fill-rule:nonzero;"/>
                        </g>
                    </g>
                </g>
            </g>
        </g>
    </g>
</svg>
