<?xml version="1.0" encoding="UTF-8" standalone="no"?>
<!DOCTYPE svg PUBLIC "-//W3C//DTD SVG 1.1//EN" "http://www.w3.org/Graphics/SVG/1.1/DTD/svg11.dtd">
<svg width="100%" height="100%" viewBox="0 0 150 150" version="1.1" xmlns="http://www.w3.org/2000/svg" xmlns:xlink="http://www.w3.org/1999/xlink" xml:space="preserve" xmlns:serif="http://www.serif.com/" style="fill-rule:evenodd;clip-rule:evenodd;stroke-linejoin:round;stroke-miterlimit:2;">
    <g transform="matrix(1,0,0,1,-320,-327)">
        <g id="pw-reset" transform="matrix(1,0,0,1,320,327)">
            <rect x="0" y="0" width="150" height="150" style="fill:none;"/>
            <circle cx="75" cy="75" r="75" style="fill:rgb(79,142,255);"/>
            <path d="M75,0C116.394,0 150,33.606 150,75C150,116.394 116.394,150 75,150C33.606,150 0,116.394 0,75C0,33.606 33.606,0 75,0ZM75,4.167C35.906,4.167 4.167,35.906 4.167,75C4.167,114.094 35.906,145.833 75,145.833C114.094,145.833 145.833,114.094 145.833,75C145.833,35.906 114.094,4.167 75,4.167Z" style="fill:white;"/>
            <g transform="matrix(0.8,0,0,0.8,75,75)">
                <g transform="matrix(1,0,0,1,-50,-50)">
                    <g transform="matrix(4.16667,0,0,4.16667,0,0)">
                        <path d="M11,15C11,15.553 10.552,16 10,16L5,16C2.243,16 0,13.757 0,11L0,8C0,5.243 2.243,3 5,3L19,3C21.757,3 24,5.243 24,8C24,8.553 23.553,9 23,9C22.447,9 22,8.553 22,8C22,6.346 20.654,5 19,5L5,5C3.346,5 2,6.346 2,8L2,11C2,12.654 3.346,14 5,14L10,14C10.552,14 11,14.447 11,15ZM8.707,7.293C8.316,6.902 7.684,6.902 7.293,7.293L6.5,8.086L5.707,7.293C5.316,6.902 4.684,6.902 4.293,7.293C3.902,7.684 3.902,8.316 4.293,8.707L5.086,9.5L4.293,10.293C3.902,10.684 3.902,11.316 4.293,11.707C4.488,11.902 4.744,12 5,12C5.256,12 5.512,11.902 5.707,11.707L6.5,10.914L7.293,11.707C7.488,11.902 7.744,12 8,12C8.256,12 8.512,11.902 8.707,11.707C9.098,11.316 9.098,10.684 8.707,10.293L7.914,9.5L8.707,8.707C9.098,8.316 9.098,7.684 8.707,7.293ZM14.707,8.707C15.098,8.316 15.098,7.684 14.707,7.293C14.316,6.902 13.684,6.902 13.293,7.293L12.5,8.086L11.707,7.293C11.316,6.902 10.684,6.902 10.293,7.293C9.902,7.684 9.902,8.316 10.293,8.707L11.086,9.5L10.293,10.293C9.902,10.684 9.902,11.316 10.293,11.707C10.488,11.902 10.744,12 11,12C11.256,12 11.512,11.902 11.707,11.707L14.707,8.707ZM24,18L24,20C24,22.206 22.206,24 20,24L16,24C13.794,24 12,22.206 12,20L12,18C12,16.526 12.81,15.25 14,14.556L14,13C14,10.794 15.794,9 18,9C20.206,9 22,10.794 22,13L22,14.556C23.19,15.25 24,16.526 24,18ZM16,14L20,14L20,13C20,11.897 19.103,11 18,11C16.897,11 16,11.897 16,13L16,14ZM22,18C22,16.897 21.103,16 20,16L16,16C14.897,16 14,16.897 14,18L14,20C14,21.103 14.897,22 16,22L20,22C21.103,22 22,21.103 22,20L22,18ZM18,17.5C17.172,17.5 16.5,18.172 16.5,19C16.5,19.828 17.172,20.5 18,20.5C18.828,20.5 19.5,19.828 19.5,19C19.5,18.172 18.828,17.5 18,17.5Z" style="fill:white;fill-rule:nonzero;"/>
                    </g>
                </g>
            </g>
        </g>
    </g>
</svg>
