<?xml version="1.0" encoding="UTF-8" standalone="no"?>
<!DOCTYPE svg PUBLIC "-//W3C//DTD SVG 1.1//EN" "http://www.w3.org/Graphics/SVG/1.1/DTD/svg11.dtd">
<svg width="100%" height="100%" viewBox="0 0 150 150" version="1.1" xmlns="http://www.w3.org/2000/svg" xmlns:xlink="http://www.w3.org/1999/xlink" xml:space="preserve" xmlns:serif="http://www.serif.com/" style="fill-rule:evenodd;clip-rule:evenodd;stroke-linejoin:round;stroke-miterlimit:2;">
    <g transform="matrix(1,0,0,1,-158,0)">
        <g id="tfa-enabled" transform="matrix(1,0,0,1,158,1.42109e-14)">
            <rect x="0" y="0" width="150" height="150" style="fill:none;"/>
            <circle cx="75" cy="75" r="75" style="fill:rgb(67,159,68);"/>
            <path d="M75,0C116.394,0 150,33.606 150,75C150,116.394 116.394,150 75,150C33.606,150 0,116.394 0,75C0,33.606 33.606,0 75,0ZM75,4.167C35.906,4.167 4.167,35.906 4.167,75C4.167,114.094 35.906,145.833 75,145.833C114.094,145.833 145.833,114.094 145.833,75C145.833,35.906 114.094,4.167 75,4.167Z" style="fill:white;"/>
            <g transform="matrix(0.0375,0,0,0.0375,75,75)">
                <g transform="matrix(1,0,0,1,-1066.67,-1066.67)">
                    <clipPath id="_clip1">
                        <rect x="0" y="0" width="2133.33" height="2133.33"/>
                    </clipPath>
                    <g clip-path="url(#_clip1)">
                        <g transform="matrix(88.8889,0,0,88.8889,0,0)">
                            <path d="M18.581,2.14L12.316,0.051C12.111,-0.017 11.889,-0.017 11.684,0.051L5.419,2.14C3.381,2.817 1.998,4.736 2,6.883L2,12C2,19.563 11.2,23.74 11.594,23.914C11.852,24.029 12.148,24.029 12.406,23.914C12.8,23.74 22,19.563 22,12L22,6.883C22.002,4.736 20.619,2.817 18.581,2.14ZM20,12C20,17.455 13.681,21.033 12,21.889C10.317,21.036 4,17.469 4,12L4,6.883C4,5.595 4.83,4.444 6.052,4.037L12,2.054L17.948,4.037C19.17,4.444 20,5.595 20,6.883L20,12Z" style="fill:white;fill-rule:nonzero;"/>
                        </g>
                        <g transform="matrix(88.8889,0,0,88.8889,0,0)">
                            <path d="M15.3,8.3L11.112,12.5L8.868,10.16C8.679,9.953 8.411,9.835 8.13,9.835C7.582,9.835 7.13,10.286 7.13,10.835C7.13,11.102 7.237,11.358 7.427,11.546L9.733,13.946C10.08,14.321 10.567,14.538 11.078,14.546L11.111,14.546C11.612,14.548 12.093,14.348 12.446,13.993L16.718,9.721C16.907,9.533 17.013,9.277 17.013,9.011C17.013,8.46 16.56,8.007 16.009,8.007C15.743,8.007 15.488,8.112 15.3,8.3Z" style="fill:white;fill-rule:nonzero;"/>
                        </g>
                    </g>
                </g>
            </g>
        </g>
    </g>
</svg>
