<?xml version="1.0" encoding="UTF-8" standalone="no"?>
<!DOCTYPE svg PUBLIC "-//W3C//DTD SVG 1.1//EN" "http://www.w3.org/Graphics/SVG/1.1/DTD/svg11.dtd">
<svg width="100%" height="100%" viewBox="0 0 150 150" version="1.1" xmlns="http://www.w3.org/2000/svg" xmlns:xlink="http://www.w3.org/1999/xlink" xml:space="preserve" xmlns:serif="http://www.serif.com/" style="fill-rule:evenodd;clip-rule:evenodd;stroke-linejoin:round;stroke-miterlimit:2;">
    <g transform="matrix(1,0,0,1,-315,0)">
        <g id="tfa-disabled" transform="matrix(1,0,0,1,315,0)">
            <rect x="0" y="0" width="150" height="150" style="fill:none;"/>
            <circle cx="75" cy="75" r="75" style="fill:rgb(217,75,49);"/>
            <path d="M75,0C116.394,0 150,33.606 150,75C150,116.394 116.394,150 75,150C33.606,150 0,116.394 0,75C0,33.606 33.606,0 75,0ZM75,4.167C35.906,4.167 4.167,35.906 4.167,75C4.167,114.094 35.906,145.833 75,145.833C114.094,145.833 145.833,114.094 145.833,75C145.833,35.906 114.094,4.167 75,4.167Z" style="fill:white;"/>
            <g transform="matrix(0.8,0,0,0.8,75,75)">
                <g transform="matrix(1,0,0,1,-50,-50)">
                    <g transform="matrix(4.16667,0,0,4.16667,0,0)">
                        <path d="M18.573,2.126L12.315,0.051C12.11,-0.017 11.89,-0.017 11.685,0.051L5.426,2.126C3.377,2.806 2,4.713 2,6.872L2,12.043C2,18.605 9.005,22.619 11.153,23.693C11.153,23.693 11.672,24 12.003,24C12.334,24 12.794,23.76 12.794,23.76C14.954,22.891 22.001,19.479 22.001,12.043L22.001,6.872C22.001,4.713 20.624,2.806 18.574,2.126L18.573,2.126ZM20,12.043C20,18.225 13.912,21.154 12.047,21.904C10.159,20.96 4,17.459 4,12.043L4,6.872C4,5.577 4.826,4.433 6.056,4.024L12,2.053L17.944,4.024C19.173,4.432 20,5.577 20,6.872L20,12.043ZM15.707,9.2L13.414,11.493L15.707,13.786C16.098,14.177 16.098,14.809 15.707,15.2C15.512,15.395 15.256,15.493 15,15.493C14.744,15.493 14.488,15.395 14.293,15.2L12,12.907L9.707,15.2C9.512,15.395 9.256,15.493 9,15.493C8.744,15.493 8.488,15.395 8.293,15.2C7.902,14.809 7.902,14.177 8.293,13.786L10.586,11.493L8.293,9.2C7.902,8.809 7.902,8.177 8.293,7.786C8.684,7.395 9.316,7.395 9.707,7.786L12,10.079L14.293,7.786C14.684,7.395 15.316,7.395 15.707,7.786C16.098,8.177 16.098,8.809 15.707,9.2Z" style="fill:white;fill-rule:nonzero;"/>
                    </g>
                </g>
            </g>
        </g>
    </g>
</svg>
