<?xml version="1.0" encoding="UTF-8" standalone="no"?>
<!DOCTYPE svg PUBLIC "-//W3C//DTD SVG 1.1//EN" "http://www.w3.org/Graphics/SVG/1.1/DTD/svg11.dtd">
<svg width="100%" height="100%" viewBox="0 0 150 150" version="1.1" xmlns="http://www.w3.org/2000/svg" xmlns:xlink="http://www.w3.org/1999/xlink" xml:space="preserve" xmlns:serif="http://www.serif.com/" style="fill-rule:evenodd;clip-rule:evenodd;stroke-linejoin:round;stroke-miterlimit:2;">
    <rect id="update" x="0" y="0" width="150" height="150" style="fill:none;"/>
    <g id="update1" serif:id="update">
        <circle cx="75" cy="75" r="75" style="fill:rgb(253,151,2);"/>
        <path d="M75,0C116.394,0 150,33.606 150,75C150,116.394 116.394,150 75,150C33.606,150 0,116.394 0,75C0,33.606 33.606,0 75,0ZM75,4.167C35.906,4.167 4.167,35.906 4.167,75C4.167,114.094 35.906,145.833 75,145.833C114.094,145.833 145.833,114.094 145.833,75C145.833,35.906 114.094,4.167 75,4.167Z" style="fill:white;"/>
        <g transform="matrix(0.0375,0,0,0.0375,75,75)">
            <g transform="matrix(1,0,0,1,-1066.67,-1066.67)">
                <clipPath id="_clip1">
                    <rect x="0" y="0" width="2133.33" height="2133.33"/>
                </clipPath>
                <g clip-path="url(#_clip1)">
                    <g transform="matrix(88.8889,0,0,88.8889,0,0)">
                        <path d="M12,2C14.678,2.009 17.245,3.09 19.122,5L16,5C15.451,5 15,5.451 15,6C15,6.549 15.451,7 16,7L20.143,7C21.162,6.999 21.999,6.162 22,5.143L22,1C22,0.451 21.549,0 21,0C20.451,0 20,0.451 20,1L20,3.078C17.8,1.097 14.942,-0 11.982,-0C5.816,-0 0.606,4.759 0.05,10.9C0.047,10.931 0.046,10.962 0.046,10.993C0.046,11.544 0.499,11.999 1.05,12C1.554,12.006 1.986,11.623 2.039,11.122C2.498,5.99 6.847,2.007 12,2Z" style="fill:white;fill-rule:nonzero;"/>
                    </g>
                    <g transform="matrix(88.8889,0,0,88.8889,0,0)">
                        <path d="M22.951,12C22.447,11.994 22.015,12.377 21.962,12.878C21.516,18.012 17.166,22 12.013,22C9.329,22 6.756,20.918 4.878,19L8,19C8.549,19 9,18.549 9,18C9,17.451 8.549,17 8,17C8,17 3.856,17 3.856,17C2.838,17 2,17.838 2,18.856C2,18.856 2,23 2,23C2,23.549 2.451,24 3,24C3.549,24 4,23.549 4,23L4,20.922C6.2,22.903 9.058,24 12.018,24C18.184,24 23.394,19.241 23.95,13.1C23.953,13.069 23.954,13.038 23.954,13.007C23.954,12.456 23.501,12.001 22.95,12L22.951,12Z" style="fill:white;fill-rule:nonzero;"/>
                    </g>
                </g>
            </g>
        </g>
    </g>
</svg>
